<svg width="44" height="44" viewBox="0 0 32 32" fill="none" xmlns="http://www.w3.org/2000/svg">
    <circle cx="16" cy="16" r="16" fill="none"/>
    <path d="M16 3C9.373 3 4 8.373 4 15c0 2.65.87 5.1 2.36 7.13L4 29l7.13-2.36A11.93 11.93 0 0016 27c6.627 0 12-5.373 12-12S22.627 3 16 3zm0 21.5c-1.93 0-3.77-.56-5.33-1.62l-.38-.24-3.17 1.05 1.05-3.17-.24-.38A9.47 9.47 0 016.5 15c0-5.24 4.26-9.5 9.5-9.5s9.5 4.26 9.5 9.5-4.26 9.5-9.5 9.5zm5.13-7.47c-.28-.14-1.65-.81-1.9-.9-.25-.09-.43-.14-.61.14-.18.28-.7.9-.86 1.08-.16.18-.32.2-.6.07-.28-.14-1.18-.44-2.25-1.4-.83-.74-1.39-1.65-1.55-1.93-.16-.28-.02-.43.12-.57.13-.13.28-.32.42-.48.14-.16.18-.28.28-.46.09-.18.05-.34-.02-.48-.07-.14-.61-1.47-.84-2.01-.22-.54-.45-.47-.61-.48-.16-.01-.34-.01-.52-.01-.18 0-.48.07-.73.34-.25.27-.96.94-.96 2.3 0 1.36.98 2.68 1.12 2.87.14.18 1.93 2.95 4.68 4.02.65.28 1.16.45 1.56.58.66.21 1.26.18 1.73.11.53-.08 1.65-.67 1.88-1.32.23-.65.23-1.2.16-1.32-.07-.12-.25-.18-.53-.32z" fill="#fff"/>
</svg>
